<svg xmlns="http://www.w3.org/2000/svg" version="1.1" xmlns:xlink="http://www.w3.org/1999/xlink" xmlns:svgjs="http://svgjs.dev/svgjs" width="1000" height="750" viewBox="0 0 1000 750"><rect width="1000" height="750" fill="#ffffff"></rect><g transform="matrix(0.834,0,0,0.834,82.49454545454546,115.4193570850203)"><svg viewBox="0 0 396 247" data-background-color="#ffffff" preserveAspectRatio="xMidYMid meet" height="623" width="1000" xmlns="http://www.w3.org/2000/svg" xmlns:xlink="http://www.w3.org/1999/xlink"><g id="tight-bounds" transform="matrix(1,0,0,1,0.2400000000000091,-0.09999999999999432)"><svg viewBox="0 0 395.52 247.2" height="247.2" width="395.52"><g><svg></svg></g><g><svg viewBox="0 0 395.52 247.2" height="247.2" width="395.52"><g transform="matrix(1,0,0,1,39.55199999999999,57.827489012387986)"><svg viewBox="0 0 316.416 131.54502197522402" height="131.54502197522402" width="316.416"><g><svg viewBox="0 0 316.416 131.54502197522402" height="131.54502197522402" width="316.416"><g><svg viewBox="0 0 316.416 131.54502197522402" height="131.54502197522402" width="316.416"><g transform="matrix(1,0,0,1,0,79.50824318945988)"><svg viewBox="0 0 316.416 52.03677878576413" height="52.03677878576413" width="316.416"><g id="textblocktransform"><svg viewBox="0 0 316.416 52.03677878576413" height="52.03677878576413" width="316.416" id="textblock"><g><svg viewBox="0 0 316.416 52.03677878576413" height="52.03677878576413" width="316.416"><g transform="matrix(1,0,0,1,0,0)"><svg width="316.416" viewBox="0.2 -33.4 214.93 35.35" height="52.03677878576413" data-palette-color="#ff5a3d"><path d="M30.9-33.4Q32.75-33.05 33.33-32.83 33.9-32.6 34.1-32.15L34.1-32.15Q33.05-28.1 31.35-20.68 29.65-13.25 29.05-10.7L29.05-10.7Q27.95-5.6 27-1.65L27-1.65Q26.3 1.1 24.8 1.1L24.8 1.1Q20.85 1.1 20.3-0.5L20.3-0.5 20.2-0.4 12.05-22.2 8.95-9.6Q8.05-6.15 7-1.8L7-1.8Q6.65-0.35 5.93 0.15 5.2 0.65 3.2 0.65L3.2 0.65Q1.65 0.65 0.93 0.13 0.2-0.4 0.2-1.65L0.2-1.65Q0.2-2.2 0.35-2.7L0.35-2.7 7.2-29.75Q7.75-31.95 8.38-32.68 9-33.4 10.65-33.4L10.65-33.4Q12-33.4 13.05-33.1 14.1-32.8 14.15-32.2L14.15-32.2 14.15-32.05 22.2-9.75Q25.45-25.45 26.35-28.2L26.35-28.2Q27.05-30.3 28.25-31.7 29.45-33.1 30.9-33.4L30.9-33.4ZM14.1-32.25L14.1-32.25ZM20.2-1.05L20.2-1.05ZM44.75 1.05Q39.85 1.05 37.6-0.9 35.35-2.85 35.35-6.1L35.35-6.1Q35.35-10.85 37.72-14.9 40.1-18.95 44.07-21.33 48.05-23.7 52.65-23.7L52.65-23.7Q55.45-23.7 57.35-22.13 59.25-20.55 59.25-17.5L59.25-17.5Q59.25-15.75 58.12-14.63 57-13.5 54.9-12.63 52.8-11.75 48.1-10.15L48.1-10.15Q43.85-8.75 41.2-7.8L41.2-7.8Q41-7.05 41-6.25L41-6.25Q41-4.85 42.17-4.1 43.35-3.35 45.5-3.35L45.5-3.35Q46.85-3.35 48.6-3.9 50.35-4.45 50.8-5.3L50.8-5.3Q52.5-8.4 53.9-8.4L53.9-8.4Q55.95-8.4 56.67-7.63 57.4-6.85 57.45-5.9L57.45-5.9Q56.85-4.3 55.1-2.68 53.35-1.05 50.65 0 47.95 1.05 44.75 1.05L44.75 1.05ZM42.6-12.4Q47.55-14 50.75-15.38 53.95-16.75 53.95-18.1L53.95-18.1Q53.95-18.7 53.3-19.07 52.65-19.45 51.9-19.45L51.9-19.45Q50.4-19.45 48.47-18.3 46.55-17.15 44.9-15.5 43.25-13.85 42.6-12.4L42.6-12.4ZM77.84-19.35Q77.25-19.65 76.34-19.65L76.34-19.65Q74.09-19.65 71.84-18.75 69.59-17.85 69.59-16.45L69.59-16.45Q69.59-15.45 70.5-14.85 71.4-14.25 73.34-13.5L73.34-13.5Q75.45-12.65 76.75-11.9 78.05-11.15 79.02-9.73 80-8.3 80-6.1L80-6.1Q80-2.5 77.02-0.58 74.05 1.35 69.05 1.35L69.05 1.35Q66.59 1.35 64.5 0.6 62.4-0.15 61.17-1.33 59.95-2.5 59.85-3.65L59.85-3.65Q59.85-4.85 60.9-5.63 61.95-6.4 63.85-6.65L63.85-6.65Q63.9-5.65 64.9-4.78 65.9-3.9 67.27-3.38 68.65-2.85 69.65-2.85L69.65-2.85Q71.34-2.85 72.75-3.78 74.15-4.7 74.15-5.95L74.15-5.95Q74.15-8.25 69.7-9.6L69.7-9.6Q66.84-10.45 65.32-12.3 63.8-14.15 63.8-16.2L63.8-16.2Q63.8-20.25 67.47-22.03 71.15-23.8 76.84-23.8L76.84-23.8Q80.05-23.8 81.8-23.05 83.55-22.3 83.55-20.45L83.55-20.45Q83.55-19.2 82.62-18.25 81.7-17.3 80-17.3L80-17.3Q78.5-17.3 78.07-17.53 77.65-17.75 77.59-18.3L77.59-18.3Q77.59-18.8 77.84-19.35L77.84-19.35ZM94.84-18.1L91.69-5.5Q91.69-4.35 92.29-3.68 92.89-3 93.99-3L93.99-3Q95.49-3 96.47-3.88 97.44-4.75 98.54-6.35L98.54-6.35Q99.34-7.5 99.84-8 100.34-8.5 100.99-8.5L100.99-8.5Q102.29-8.5 102.84-8.18 103.39-7.85 103.39-6.85L103.39-6.85Q103.39-6.4 103.29-5.78 103.19-5.15 103.04-4.85L103.04-4.85Q101.84-2.3 99.12-0.45 96.39 1.4 92.94 1.4L92.94 1.4Q89.49 1.4 87.74-0.28 85.99-1.95 85.99-5.05L85.99-5.05Q85.99-5.5 86.44-7.4 86.89-9.3 87.59-11.95L87.59-11.95 88.99-17.65 85.94-17.4Q85.34-17.4 85.04-17.85 84.74-18.3 84.74-18.95L84.74-18.95Q84.74-20.2 85.64-21.45L85.64-21.45Q85.74-21.6 86.64-21.75 87.54-21.9 88.84-22.05L88.84-22.05 90.19-22.2 91.89-29.5Q92.39-30.8 93.42-31.53 94.44-32.25 95.34-32.25L95.34-32.25Q96.34-32.25 97.04-31.65 97.74-31.05 97.79-30.25L97.79-30.25 95.99-22.75Q97.94-23 99.62-23.18 101.29-23.35 102.24-23.35L102.24-23.35Q104.14-23.35 104.14-21.15L104.14-21.15Q104.14-20.3 103.42-19.63 102.69-18.95 101.84-18.8L101.84-18.8 94.84-18.1ZM129.44-14.6Q119.59-13.4 115.49-12.5L115.49-12.5 112.79-1.8Q112.44-0.35 111.77 0.15 111.09 0.65 109.09 0.65L109.09 0.65Q107.54 0.65 106.81 0.13 106.09-0.4 106.09-1.65L106.09-1.65Q106.09-2.2 106.24-2.7L106.24-2.7 113.09-29.75Q113.64-31.95 114.27-32.68 114.89-33.4 116.54-33.4L116.54-33.4Q117.89-33.4 119.02-33.1 120.14-32.8 120.19-32.2L120.19-32.2Q120.19-32.1 119.54-29.5L119.54-29.5Q118.54-25.65 116.69-17.8L116.69-17.8Q124.09-19.3 130.74-19.85L130.74-19.85 133.04-29.15Q133.54-31.15 134.41-32.13 135.29-33.1 136.79-33.4L136.79-33.4Q138.64-33.05 139.22-32.83 139.79-32.6 139.99-32.15L139.99-32.15Q139.34-30.3 139.01-28.73 138.69-27.15 138.64-26.85L138.64-26.85Q137.99-23.35 137.09-19.7L137.09-19.7Q139.04-18.85 139.04-17.4L139.04-17.4Q139.04-15.95 135.94-14.95L135.94-14.95Q135.39-12.95 133.89-6.25L133.89-6.25Q133.54-4.4 132.89-1.65L132.89-1.65Q132.19 1.1 130.69 1.1L130.69 1.1Q126.09 1.1 126.09-1.05L126.09-1.05Q126.09-1.5 129.44-14.6L129.44-14.6ZM161.54-0.15Q161.34 0.7 160.64 1.03 159.94 1.35 158.79 1.35L158.79 1.35Q155.34 1.35 155.34-0.2L155.34-0.2 155.64-2.1Q154.24-1.05 152.34 0 150.44 1.05 149.19 1.05L149.19 1.05Q141.79 1.05 141.79-3.8L141.79-3.8Q141.79-12.05 146.74-21.7L146.74-21.7Q147.34-22.85 148.01-23.35 148.69-23.85 150.34-23.85L150.34-23.85Q152.09-23.85 152.96-23.38 153.84-22.9 153.84-22.25L153.84-22.25Q153.84-22.1 153.29-21.35L153.29-21.35Q152.74-20.7 152.34-20.05L152.34-20.05Q147.64-12.2 147.64-4.75L147.64-4.75Q147.64-4.1 148.14-3.6 148.64-3.1 149.04-3.1L149.04-3.1Q150.14-3.1 152.76-4.15 155.39-5.2 156.79-6.3L156.79-6.3 157.79-10.35Q159.59-17.6 160.04-19.25L160.04-19.25Q160.59-21.25 161.46-22.53 162.34-23.8 164.24-23.8L164.24-23.8Q166.89-23.8 166.89-22.2L166.89-22.2Q166.89-21.95 166.76-21.58 166.64-21.2 166.59-20.95L166.59-20.95 164.59-12.85Q162.19-3.2 161.54-0.15L161.54-0.15ZM171.54-22.85Q171.39-23 171.39-23.2L171.39-23.2Q171.39-23.7 172.49-24.03 173.59-24.35 175.54-24.35L175.54-24.35Q177.34-24.35 178.19-23.43 179.04-22.5 179.19-21.2L179.19-21.2 178.29-17.95Q179.34-19.4 181.24-20.73 183.14-22.05 185.09-22.85 187.04-23.65 188.29-23.65L188.29-23.65Q190.94-23.65 192.14-22.68 193.34-21.7 193.34-19.6L193.34-19.6Q190.39-11.9 189.44-3L189.44-3 190.14-0.55Q189.54 0.6 188.46 1.28 187.39 1.95 185.34 1.95L185.34 1.95Q184.14 1.95 183.59 1.15 183.04 0.35 183.04-0.85L183.04-0.85Q183.04-4.2 184.01-8.22 184.99-12.25 186.29-16.45L186.29-16.45Q186.79-18.05 186.79-18.1L186.79-18.1Q186.79-18.8 185.99-18.8L185.99-18.8Q184.89-18.8 182.66-17.25 180.44-15.7 178.09-12.03 175.74-8.35 174.29-2.4L174.29-2.4Q174.19-2.1 174.04-1.3 173.89-0.5 173.24-0.18 172.59 0.15 171.14 0.15L171.14 0.15Q169.49 0.15 168.71-0.2 167.94-0.55 167.94-1.7L167.94-1.7Q168.09-2.4 168.39-3.4L168.39-3.4Q171.29-15.05 172.84-21.35L172.84-21.35 171.54-22.85ZM205.83-18.1L202.68-5.5Q202.68-4.35 203.28-3.68 203.88-3 204.98-3L204.98-3Q206.48-3 207.46-3.88 208.43-4.75 209.53-6.35L209.53-6.35Q210.33-7.5 210.83-8 211.33-8.5 211.98-8.5L211.98-8.5Q213.28-8.5 213.83-8.18 214.38-7.85 214.38-6.85L214.38-6.85Q214.38-6.4 214.28-5.78 214.18-5.15 214.03-4.85L214.03-4.85Q212.83-2.3 210.11-0.45 207.38 1.4 203.93 1.4L203.93 1.4Q200.48 1.4 198.73-0.28 196.98-1.95 196.98-5.05L196.98-5.05Q196.98-5.5 197.43-7.4 197.88-9.3 198.58-11.95L198.58-11.95 199.98-17.65 196.93-17.4Q196.33-17.4 196.03-17.85 195.73-18.3 195.73-18.95L195.73-18.95Q195.73-20.2 196.63-21.45L196.63-21.45Q196.73-21.6 197.63-21.75 198.53-21.9 199.83-22.05L199.83-22.05 201.18-22.2 202.88-29.5Q203.38-30.8 204.41-31.53 205.43-32.25 206.33-32.25L206.33-32.25Q207.33-32.25 208.03-31.65 208.73-31.05 208.78-30.25L208.78-30.25 206.98-22.75Q208.93-23 210.61-23.18 212.28-23.35 213.23-23.35L213.23-23.35Q215.13-23.35 215.13-21.15L215.13-21.15Q215.13-20.3 214.41-19.63 213.68-18.95 212.83-18.8L212.83-18.8 205.83-18.1Z" opacity="1" transform="matrix(1,0,0,1,0,0)" fill="#ff5a3d" class="undefined-text-0" data-fill-palette-color="primary" id="text-0"></path></svg></g></svg></g></svg></g></svg></g><g transform="matrix(1,0,0,1,103.7841356250201,0)"><svg viewBox="0 0 108.84772874995978 71.91482828192603" height="71.91482828192603" width="108.84772874995978"><g><svg xmlns="http://www.w3.org/2000/svg" xmlns:xlink="http://www.w3.org/1999/xlink" version="1.1" x="0" y="0" viewBox="8.189 6.884 94.73400000000001 62.58999999999999" enable-background="new 0 0 107.895 78.07" xml:space="preserve" height="71.91482828192603" width="108.84772874995978" class="icon-icon-0" data-fill-palette-color="accent" id="icon-0"><polygon points="102.923,54.276 96.612,60.683 55.61,19.633 14.584,60.683 8.189,54.276 55.584,6.887 55.655,6.955 55.904,6.884   75.281,26.08 75.281,12.474 83.281,12.474 83.281,34.824 " fill="#ff5a3d" data-fill-palette-color="accent"></polygon><rect x="47.281" y="40.474" width="17" height="29" fill="#ff5a3d" data-fill-palette-color="accent"></rect></svg></g></svg></g><g></g></svg></g></svg></g></svg></g><g><path d="M0 247.2v-247.2h395.52v247.2zM392.619 244.299v-241.398h-389.718v241.398z" fill="#ffffff" fill-rule="nonzero" stroke="none" stroke-width="1" stroke-linecap="butt" stroke-linejoin="miter" stroke-miterlimit="10" stroke-dasharray="" stroke-dashoffset="0" font-family="none" font-weight="none" font-size="none" text-anchor="none" style="mix-blend-mode: normal" data-fill-palette-color="tertiary"></path></g></svg></g><defs></defs></svg><rect width="395.52" height="247.2" fill="none" stroke="none" visibility="hidden"></rect></g></svg></g></svg>